<svg xmlns="http://www.w3.org/2000/svg" version="1.1" xmlns:xlink="http://www.w3.org/1999/xlink" xmlns:svgjs="http://svgjs.dev/svgjs" viewBox="0 0 20.363539465067177 5.998504822148036"><g transform="matrix(1,0,0,1,7.371401954725229,1.9919649110740185)"><rect width="20.363539465067177" height="20.363539465067177" x="-7.371401954725229" y="-9.174482232533588" fill="#ffffff"></rect><g><path d=" M 0.6015 1.0199999999999998 Q 0.4935 1.0199999999999998 0.40125 0.9817499999999999 Q 0.309 0.9434999999999999 0.24075 0.8752499999999999 Q 0.17250000000000001 0.8069999999999999 0.135 0.714 Q 0.0975 0.6209999999999999 0.0975 0.5099999999999999 Q 0.0975 0.3989999999999999 0.135 0.3059999999999998 Q 0.17250000000000001 0.21299999999999986 0.24075 0.14474999999999982 Q 0.309 0.0764999999999999 0.40125 0.038249999999999895 Q 0.4935 -2.220446049250313e-16 0.6015 -2.220446049250313e-16 Q 0.7095 -2.220446049250313e-16 0.80175 0.038249999999999895 Q 0.894 0.0764999999999999 0.96225 0.14474999999999982 Q 1.0305 0.21299999999999986 1.06875 0.3059999999999998 Q 1.107 0.3989999999999999 1.107 0.5099999999999999 Q 1.107 0.6209999999999999 1.06875 0.714 Q 1.0305 0.8069999999999999 0.96225 0.8752499999999999 Q 0.894 0.9434999999999999 0.80175 0.9817499999999999 Q 0.7095 1.0199999999999998 0.6015 1.0199999999999998 M 0.6315000000000001 0.9449999999999998 Q 0.723 0.9449999999999998 0.792 0.8969999999999999 Q 0.861 0.8489999999999999 0.9 0.7619999999999999 Q 0.9390000000000001 0.6749999999999998 0.9390000000000001 0.5564999999999999 Q 0.9390000000000001 0.4109999999999999 0.891 0.3022499999999999 Q 0.843 0.1934999999999999 0.7605000000000001 0.13349999999999984 Q 0.678 0.0734999999999999 0.5775 0.0734999999999999 Q 0.486 0.0734999999999999 0.41550000000000004 0.12074999999999991 Q 0.34500000000000003 0.16799999999999993 0.30525 0.2549999999999999 Q 0.2655 0.34199999999999986 0.2655 0.4604999999999999 Q 0.2655 0.6059999999999999 0.31425000000000003 0.7154999999999999 Q 0.363 0.825 0.44625000000000004 0.8849999999999999 Q 0.5295 0.9449999999999998 0.6315000000000001 0.9449999999999998 M 1.2944677734375 1.005 L 1.2944677734375 0.9809999999999999 L 1.4159677734375 0.9209999999999999 L 1.4159677734375 0.09899999999999987 L 1.2944677734375 0.038999999999999924 L 1.2944677734375 0.014999999999999902 L 1.7144677734375 0.014999999999999902 Q 1.8914677734375 0.014999999999999902 1.9987177734375 0.0794999999999999 Q 2.1059677734375 0.1439999999999999 2.1059677734375 0.28349999999999986 Q 2.1059677734375 0.3659999999999999 2.0497177734375 0.42974999999999985 Q 1.9934677734375001 0.4934999999999998 1.8974677734375 0.5302499999999999 Q 1.8014677734375 0.567 1.6784677734375 0.567 L 1.5734677734375 0.567 L 1.5734677734375 0.9209999999999999 L 1.7114677734375001 0.9809999999999999 L 1.7114677734375001 1.005 L 1.2944677734375 1.005 M 1.5734677734375 0.09749999999999992 L 1.5734677734375 0.48749999999999993 L 1.6874677734375 0.48749999999999993 Q 1.8059677734375001 0.48749999999999993 1.8734677734375 0.4334999999999999 Q 1.9409677734375 0.37949999999999984 1.9409677734375 0.2954999999999999 Q 1.9409677734375 0.1904999999999999 1.8727177734375 0.1439999999999999 Q 1.8044677734375 0.09749999999999992 1.6769677734375001 0.09749999999999992 L 1.5734677734375 0.09749999999999992 M 2.458447998046875 1.005 L 2.458447998046875 0.9809999999999999 L 2.609947998046875 0.9209999999999999 L 2.609947998046875 0.09749999999999992 L 2.372947998046875 0.09749999999999992 L 2.266447998046875 0.32399999999999984 L 2.242447998046875 0.32399999999999984 L 2.242447998046875 0.014999999999999902 L 3.133447998046875 0.014999999999999902 L 3.133447998046875 0.32399999999999984 L 3.1094479980468748 0.32399999999999984 L 3.0044479980468752 0.09749999999999992 L 2.765947998046875 0.09749999999999992 L 2.765947998046875 0.9209999999999999 L 2.918947998046875 0.9809999999999999 L 2.918947998046875 1.005 L 2.458447998046875 1.005 M 3.29393701171875 1.005 L 3.29393701171875 0.9809999999999999 L 3.41693701171875 0.9209999999999999 L 3.41693701171875 0.09899999999999987 L 3.29393701171875 0.038999999999999924 L 3.29393701171875 0.014999999999999902 L 3.69443701171875 0.014999999999999902 L 3.69443701171875 0.038999999999999924 L 3.57293701171875 0.09899999999999987 L 3.57293701171875 0.9209999999999999 L 3.69443701171875 0.9809999999999999 L 3.69443701171875 1.005 L 3.29393701171875 1.005 M 3.87446630859375 1.005 L 3.87446630859375 0.9809999999999999 L 3.99446630859375 0.9209999999999999 L 4.02596630859375 0.09899999999999987 L 3.89696630859375 0.038999999999999924 L 3.89696630859375 0.014999999999999902 L 4.19546630859375 0.014999999999999902 L 4.53146630859375 0.7904999999999999 L 4.86596630859375 0.014999999999999902 L 5.15246630859375 0.014999999999999902 L 5.15246630859375 0.038999999999999924 L 5.02496630859375 0.09449999999999992 L 5.05046630859375 0.9209999999999999 L 5.15846630859375 0.9809999999999999 L 5.15846630859375 1.005 L 4.7879663085937505 1.005 L 4.7879663085937505 0.9809999999999999 L 4.90046630859375 0.9224999999999999 L 4.88546630859375 0.18899999999999983 L 4.53146630859375 1.0125 L 4.4594663085937505 1.0125 L 4.10846630859375 0.19799999999999984 L 4.08896630859375 0.9224999999999999 L 4.21346630859375 0.9809999999999999 L 4.21346630859375 1.005 L 3.87446630859375 1.005 M 5.33249267578125 1.005 L 5.33249267578125 0.9809999999999999 L 5.45399267578125 0.9209999999999999 L 5.45399267578125 0.09899999999999987 L 5.33249267578125 0.038999999999999924 L 5.33249267578125 0.014999999999999902 L 5.73599267578125 0.014999999999999902 Q 5.83649267578125 0.014999999999999902 5.91674267578125 0.03974999999999984 Q 5.99699267578125 0.06449999999999989 6.04274267578125 0.11324999999999985 Q 6.08849267578125 0.16199999999999992 6.08849267578125 0.23699999999999988 Q 6.08849267578125 0.3134999999999999 6.03599267578125 0.37724999999999986 Q 5.98349267578125 0.44099999999999984 5.88449267578125 0.46799999999999986 Q 6.02099267578125 0.4859999999999999 6.0982426757812505 0.5512499999999999 Q 6.17549267578125 0.6164999999999998 6.17549267578125 0.7169999999999999 Q 6.17549267578125 0.7994999999999999 6.12299267578125 0.8647499999999999 Q 6.07049267578125 0.9299999999999999 5.97899267578125 0.9674999999999999 Q 5.88749267578125 1.005 5.7704926757812505 1.005 L 5.33249267578125 1.005 M 5.69249267578125 0.09749999999999992 L 5.61149267578125 0.09749999999999992 L 5.61149267578125 0.4544999999999999 L 5.69999267578125 0.4544999999999999 Q 5.80649267578125 0.4544999999999999 5.8649926757812505 0.4079999999999999 Q 5.92349267578125 0.36149999999999993 5.92349267578125 0.28049999999999986 Q 5.92349267578125 0.09749999999999992 5.69249267578125 0.09749999999999992 M 5.74799267578125 0.5339999999999998 L 5.61149267578125 0.5339999999999998 L 5.61149267578125 0.9224999999999999 L 5.75849267578125 0.9224999999999999 Q 5.87399267578125 0.9224999999999999 5.94074267578125 0.8677499999999999 Q 6.00749267578125 0.813 6.00749267578125 0.7274999999999998 Q 6.00749267578125 0.6269999999999999 5.93999267578125 0.5804999999999999 Q 5.87249267578125 0.5339999999999998 5.74799267578125 0.5339999999999998 M 6.336002197265625 1.005 L 6.336002197265625 0.9809999999999999 L 6.457502197265625 0.9209999999999999 L 6.457502197265625 0.09899999999999987 L 6.336002197265625 0.038999999999999924 L 6.336002197265625 0.014999999999999902 L 6.753002197265625 0.014999999999999902 Q 6.910502197265625 0.014999999999999902 7.001252197265625 0.08024999999999982 Q 7.092002197265625 0.14549999999999985 7.092002197265625 0.25949999999999984 Q 7.092002197265625 0.3434999999999999 7.035002197265625 0.4079999999999999 Q 6.978002197265625 0.4724999999999999 6.885002197265625 0.5069999999999999 L 7.168502197265625 0.9254999999999999 L 7.269002197265625 0.9809999999999999 L 7.269002197265625 1.005 L 7.027502197265625 1.005 L 6.739502197265625 0.5489999999999999 L 6.615002197265625 0.5489999999999999 L 6.615002197265625 0.9194999999999999 L 6.727502197265625 0.9809999999999999 L 6.727502197265625 1.005 L 6.336002197265625 1.005 M 6.703502197265625 0.09749999999999992 L 6.615002197265625 0.09749999999999992 L 6.615002197265625 0.4694999999999999 L 6.712502197265625 0.4694999999999999 Q 6.805502197265625 0.4694999999999999 6.866252197265625 0.4162499999999999 Q 6.927002197265625 0.3629999999999999 6.927002197265625 0.28049999999999986 Q 6.927002197265625 0.19499999999999984 6.8677521972656255 0.14624999999999988 Q 6.808502197265625 0.09749999999999992 6.703502197265625 0.09749999999999992 M 7.297532958984375 1.005 L 7.297532958984375 0.9809999999999999 L 7.392032958984375 0.9314999999999999 L 7.777532958984375 0.00749999999999984 L 7.860032958984375 0.00749999999999984 L 8.241032958984375 0.9269999999999999 L 8.341532958984375 0.9809999999999999 L 8.341532958984375 1.005 L 7.945532958984375 1.005 L 7.945532958984375 0.9809999999999999 L 8.077532958984374 0.9284999999999999 L 7.966532958984375 0.6584999999999999 L 7.605032958984375 0.6584999999999999 L 7.495532958984375 0.9299999999999999 L 7.621532958984375 0.9809999999999999 L 7.621532958984375 1.005 L 7.297532958984375 1.005 M 7.6395329589843755 0.5759999999999998 L 7.933532958984375 0.5759999999999998 L 7.786532958984375 0.2144999999999999 L 7.6395329589843755 0.5759999999999998 M 8.482505126953125 1.005 L 8.482505126953125 0.9809999999999999 L 8.605505126953124 0.9209999999999999 L 8.605505126953124 0.09899999999999987 L 8.482505126953125 0.038999999999999924 L 8.482505126953125 0.014999999999999902 L 8.883005126953124 0.014999999999999902 L 8.883005126953124 0.038999999999999924 L 8.761505126953125 0.09899999999999987 L 8.761505126953125 0.9209999999999999 L 8.883005126953124 0.9809999999999999 L 8.883005126953124 1.005 L 8.482505126953125 1.005 M 9.063034423828125 1.005 L 9.063034423828125 0.9809999999999999 L 9.184534423828126 0.9209999999999999 L 9.184534423828126 0.10199999999999987 L 9.064534423828125 0.038999999999999924 L 9.064534423828125 0.014999999999999902 L 9.300034423828125 0.014999999999999902 L 9.874534423828125 0.7214999999999998 L 9.874534423828125 0.09749999999999992 L 9.720034423828125 0.038999999999999924 L 9.720034423828125 0.014999999999999902 L 10.099534423828125 0.014999999999999902 L 10.099534423828125 0.038999999999999924 L 9.979534423828126 0.09749999999999992 L 9.979534423828126 1.0125 L 9.915034423828125 1.0125 L 9.289534423828124 0.24449999999999983 L 9.289534423828124 0.9224999999999999 L 9.444034423828125 0.9809999999999999 L 9.444034423828125 1.005 L 9.063034423828125 1.005 M 10.582502197265626 1.0199999999999998 Q 10.488002197265626 1.0199999999999998 10.421252197265625 1.002 Q 10.354502197265624 0.9839999999999999 10.284002197265625 0.9494999999999999 L 10.269002197265625 0.702 L 10.293002197265626 0.702 L 10.372502197265625 0.8654999999999999 Q 10.425002197265625 0.9089999999999999 10.476002197265625 0.9284999999999999 Q 10.527002197265626 0.9479999999999998 10.578002197265626 0.9479999999999998 Q 10.665002197265625 0.9479999999999998 10.715252197265626 0.9029999999999999 Q 10.765502197265626 0.8579999999999999 10.765502197265626 0.7799999999999999 Q 10.765502197265626 0.7184999999999999 10.737752197265625 0.6817499999999999 Q 10.710002197265625 0.6449999999999999 10.655252197265625 0.6157499999999999 Q 10.600502197265625 0.5864999999999999 10.521002197265625 0.5474999999999999 Q 10.414502197265625 0.49649999999999983 10.357502197265624 0.4402499999999999 Q 10.300502197265626 0.3839999999999999 10.300502197265626 0.2819999999999999 Q 10.300502197265626 0.22799999999999987 10.326752197265625 0.17774999999999985 Q 10.353002197265624 0.12749999999999984 10.398002197265624 0.08774999999999988 Q 10.443002197265624 0.04799999999999982 10.498502197265625 0.02399999999999991 Q 10.554002197265625 -2.220446049250313e-16 10.614002197265625 -2.220446049250313e-16 Q 10.684502197265624 -2.220446049250313e-16 10.746002197265625 0.016499999999999848 Q 10.807502197265626 0.03299999999999992 10.867502197265624 0.06449999999999989 L 10.882502197265625 0.3044999999999999 L 10.858502197265626 0.3044999999999999 L 10.780502197265625 0.1439999999999999 Q 10.732502197265624 0.10649999999999993 10.693502197265625 0.08999999999999986 Q 10.654502197265625 0.0734999999999999 10.605002197265625 0.0734999999999999 Q 10.540502197265624 0.0734999999999999 10.497752197265624 0.11699999999999988 Q 10.455002197265625 0.16049999999999986 10.455002197265625 0.22649999999999992 Q 10.455002197265625 0.29999999999999993 10.500752197265625 0.34199999999999986 Q 10.546502197265625 0.3839999999999999 10.648502197265625 0.43199999999999983 Q 10.738502197265625 0.4754999999999999 10.797752197265625 0.5152499999999999 Q 10.857002197265626 0.5549999999999999 10.885502197265625 0.6044999999999998 Q 10.914002197265624 0.6539999999999999 10.914002197265624 0.7304999999999999 Q 10.914002197265624 0.8009999999999999 10.884002197265625 0.8549999999999999 Q 10.854002197265626 0.9089999999999999 10.804502197265625 0.9457499999999999 Q 10.755002197265625 0.9824999999999999 10.697252197265625 1.00125 Q 10.639502197265625 1.0199999999999998 10.582502197265626 1.0199999999999998" fill="#173054" fill-rule="nonzero"></path></g><g><path d=" M 0.30225 2.022074999999999 Q 0.24825 2.022074999999999 0.202875 2.0029499999999993 Q 0.1575 1.9838249999999993 0.12375 1.9496999999999993 Q 0.09 1.9155749999999994 0.07125000000000001 1.8690749999999994 Q 0.0525 1.8225749999999994 0.0525 1.7670749999999993 Q 0.0525 1.7115749999999994 0.07125000000000001 1.6650749999999994 Q 0.09 1.6185749999999994 0.12375 1.5844499999999992 Q 0.1575 1.5503249999999993 0.202875 1.5311999999999992 Q 0.24825 1.5120749999999994 0.30225 1.5120749999999994 Q 0.35625 1.5120749999999994 0.402 1.5311999999999992 Q 0.44775000000000004 1.5503249999999993 0.4815 1.5844499999999992 Q 0.51525 1.6185749999999994 0.534 1.6650749999999994 Q 0.55275 1.7115749999999994 0.55275 1.7670749999999993 Q 0.55275 1.8225749999999994 0.534 1.8690749999999994 Q 0.51525 1.9155749999999994 0.4815 1.9496999999999993 Q 0.44775000000000004 1.9838249999999993 0.402 2.0029499999999993 Q 0.35625 2.022074999999999 0.30225 2.022074999999999 M 0.318 1.9845749999999993 Q 0.366 1.9845749999999993 0.402375 1.9605749999999993 Q 0.43875000000000003 1.9365749999999993 0.45937500000000003 1.8930749999999994 Q 0.48 1.8495749999999993 0.48 1.7903249999999993 Q 0.48 1.7175749999999994 0.4545 1.6631999999999993 Q 0.429 1.6088249999999993 0.385875 1.5788249999999993 Q 0.34275 1.5488249999999995 0.2895 1.5488249999999995 Q 0.2415 1.5488249999999995 0.204375 1.5724499999999995 Q 0.16725 1.5960749999999995 0.14625 1.6395749999999993 Q 0.12525 1.6830749999999992 0.12525 1.7423249999999992 Q 0.12525 1.8150749999999993 0.151125 1.8698249999999994 Q 0.177 1.9245749999999993 0.2205 1.9545749999999993 Q 0.264 1.9845749999999993 0.318 1.9845749999999993 M 0.654005126953125 2.0145749999999993 L 0.654005126953125 2.0025749999999993 L 0.714005126953125 1.9725749999999993 L 0.714005126953125 1.5615749999999993 L 0.654005126953125 1.5315749999999992 L 0.654005126953125 1.5195749999999992 L 0.849005126953125 1.5195749999999992 Q 0.9375051269531249 1.5195749999999992 0.991130126953125 1.5518249999999993 Q 1.044755126953125 1.5840749999999995 1.044755126953125 1.6538249999999994 Q 1.044755126953125 1.6950749999999992 1.016630126953125 1.7269499999999993 Q 0.9885051269531251 1.7588249999999994 0.940130126953125 1.7775749999999992 Q 0.891755126953125 1.7963249999999993 0.831005126953125 1.7963249999999993 L 0.781505126953125 1.7963249999999993 L 0.781505126953125 1.9725749999999993 L 0.849005126953125 2.0025749999999993 L 0.849005126953125 2.0145749999999993 L 0.654005126953125 2.0145749999999993 M 0.781505126953125 1.5608249999999995 L 0.781505126953125 1.7550749999999993 L 0.845255126953125 1.7550749999999993 Q 0.904505126953125 1.7550749999999993 0.938255126953125 1.7284499999999994 Q 0.972005126953125 1.7018249999999993 0.972005126953125 1.6598249999999992 Q 0.972005126953125 1.6073249999999994 0.937880126953125 1.5840749999999995 Q 0.903755126953125 1.5608249999999995 0.840005126953125 1.5608249999999995 L 0.781505126953125 1.5608249999999995 M 1.2277554931640626 2.0145749999999993 L 1.2277554931640626 2.0025749999999993 L 1.3027554931640626 1.9725749999999993 L 1.3027554931640626 1.5608249999999995 L 1.1805054931640626 1.5608249999999995 L 1.1295054931640625 1.6710749999999992 L 1.1175054931640624 1.6710749999999992 L 1.1175054931640624 1.5195749999999992 L 1.5555054931640626 1.5195749999999992 L 1.5555054931640626 1.6710749999999992 L 1.5435054931640626 1.6710749999999992 L 1.4925054931640624 1.5608249999999995 L 1.3702554931640625 1.5608249999999995 L 1.3702554931640625 1.9725749999999993 L 1.4452554931640624 2.0025749999999993 L 1.4452554931640624 2.0145749999999993 L 1.2277554931640626 2.0145749999999993 M 1.641763916015625 2.0145749999999993 L 1.641763916015625 2.0025749999999993 L 1.701763916015625 1.9725749999999993 L 1.701763916015625 1.5615749999999993 L 1.641763916015625 1.5315749999999992 L 1.641763916015625 1.5195749999999992 L 1.829263916015625 1.5195749999999992 L 1.829263916015625 1.5315749999999992 L 1.769263916015625 1.5615749999999993 L 1.769263916015625 1.9725749999999993 L 1.829263916015625 2.0025749999999993 L 1.829263916015625 2.0145749999999993 L 1.641763916015625 2.0145749999999993 M 1.92677490234375 2.0145749999999993 L 1.92677490234375 2.0025749999999993 L 1.98602490234375 1.9725749999999993 L 2.00177490234375 1.5623249999999993 L 1.93727490234375 1.5315749999999992 L 1.93727490234375 1.5195749999999992 L 2.07602490234375 1.5195749999999992 L 2.24927490234375 1.9185749999999993 L 2.42177490234375 1.5195749999999992 L 2.55377490234375 1.5195749999999992 L 2.55377490234375 1.5315749999999992 L 2.49077490234375 1.5615749999999993 L 2.50352490234375 1.9725749999999993 L 2.55602490234375 2.0025749999999993 L 2.55602490234375 2.0145749999999993 L 2.38352490234375 2.0145749999999993 L 2.38352490234375 2.0025749999999993 L 2.43902490234375 1.9733249999999993 L 2.43152490234375 1.6035749999999993 L 2.25227490234375 2.0183249999999995 L 2.21852490234375 2.0183249999999995 L 2.04227490234375 1.6088249999999993 L 2.03252490234375 1.9733249999999993 L 2.09327490234375 2.0025749999999993 L 2.09327490234375 2.0145749999999993 L 1.92677490234375 2.0145749999999993 M 2.65351318359375 2.0145749999999993 L 2.65351318359375 2.0025749999999993 L 2.71351318359375 1.9725749999999993 L 2.71351318359375 1.5615749999999993 L 2.65351318359375 1.5315749999999992 L 2.65351318359375 1.5195749999999992 L 2.84101318359375 1.5195749999999992 L 2.84101318359375 1.5315749999999992 L 2.78101318359375 1.5615749999999993 L 2.78101318359375 1.9725749999999993 L 2.84101318359375 2.0025749999999993 L 2.84101318359375 2.0145749999999993 L 2.65351318359375 2.0145749999999993 M 3.091524169921875 2.022074999999999 Q 3.045024169921875 2.022074999999999 3.012774169921875 2.0134499999999993 Q 2.980524169921875 2.0048249999999994 2.946024169921875 1.9875749999999994 L 2.938524169921875 1.8645749999999994 L 2.950524169921875 1.8645749999999994 L 2.987274169921875 1.9440749999999993 Q 3.014274169921875 1.9665749999999993 3.039774169921875 1.9766999999999992 Q 3.065274169921875 1.9868249999999994 3.091524169921875 1.9868249999999994 Q 3.135774169921875 1.9868249999999994 3.160899169921875 1.9635749999999994 Q 3.186024169921875 1.9403249999999994 3.186024169921875 1.9005749999999992 Q 3.186024169921875 1.8675749999999993 3.171399169921875 1.8488249999999993 Q 3.156774169921875 1.8300749999999995 3.129399169921875 1.8154499999999993 Q 3.102024169921875 1.8008249999999992 3.064524169921875 1.7820749999999994 Q 3.029274169921875 1.7640749999999994 3.004524169921875 1.7468249999999994 Q 2.979774169921875 1.7295749999999992 2.967024169921875 1.7066999999999992 Q 2.954274169921875 1.6838249999999992 2.954274169921875 1.6493249999999993 Q 2.954274169921875 1.6238249999999994 2.966649169921875 1.5994499999999994 Q 2.979024169921875 1.5750749999999993 3.000399169921875 1.5551999999999992 Q 3.021774169921875 1.5353249999999994 3.048399169921875 1.5236999999999994 Q 3.0750241699218748 1.5120749999999994 3.103524169921875 1.5120749999999994 Q 3.138024169921875 1.5120749999999994 3.167274169921875 1.5203249999999993 Q 3.196524169921875 1.5285749999999994 3.227274169921875 1.5435749999999993 L 3.234774169921875 1.6635749999999994 L 3.222774169921875 1.6635749999999994 L 3.188274169921875 1.5848249999999993 Q 3.162024169921875 1.5653249999999994 3.142524169921875 1.5566999999999993 Q 3.123024169921875 1.5480749999999994 3.097524169921875 1.5480749999999994 Q 3.064524169921875 1.5480749999999994 3.043149169921875 1.5705749999999994 Q 3.021774169921875 1.5930749999999994 3.021774169921875 1.6260749999999993 Q 3.021774169921875 1.6643249999999994 3.045024169921875 1.6856999999999993 Q 3.068274169921875 1.7070749999999992 3.117774169921875 1.7310749999999993 Q 3.163524169921875 1.7535749999999992 3.192774169921875 1.7726999999999993 Q 3.222024169921875 1.7918249999999993 3.236274169921875 1.8165749999999994 Q 3.250524169921875 1.8413249999999994 3.250524169921875 1.8795749999999993 Q 3.250524169921875 1.9148249999999993 3.235524169921875 1.9414499999999992 Q 3.220524169921875 1.9680749999999994 3.196899169921875 1.9860749999999994 Q 3.173274169921875 2.0040749999999994 3.1451491699218748 2.0130749999999993 Q 3.117024169921875 2.022074999999999 3.091524169921875 2.022074999999999 M 3.340528564453125 2.0145749999999993 L 3.340528564453125 2.0025749999999993 L 3.400528564453125 1.9725749999999993 L 3.400528564453125 1.5615749999999993 L 3.340528564453125 1.5315749999999992 L 3.340528564453125 1.5195749999999992 L 3.707278564453125 1.5195749999999992 L 3.707278564453125 1.6485749999999992 L 3.695278564453125 1.6485749999999992 L 3.648778564453125 1.5608249999999995 L 3.468028564453125 1.5608249999999995 L 3.468028564453125 1.7385749999999993 L 3.595528564453125 1.7385749999999993 L 3.633028564453125 1.6763249999999994 L 3.645028564453125 1.6763249999999994 L 3.645028564453125 1.8405749999999994 L 3.633028564453125 1.8405749999999994 L 3.595528564453125 1.7798249999999993 L 3.468028564453125 1.7798249999999993 L 3.468028564453125 1.9733249999999993 L 3.669778564453125 1.9733249999999993 L 3.716278564453125 1.8780749999999993 L 3.728278564453125 1.8780749999999993 L 3.728278564453125 2.0145749999999993 L 3.340528564453125 2.0145749999999993 M 3.82951171875 2.0145749999999993 L 3.82951171875 2.0025749999999993 L 3.88951171875 1.9725749999999993 L 3.88951171875 1.5615749999999993 L 3.82951171875 1.5315749999999992 L 3.82951171875 1.5195749999999992 L 4.02301171875 1.5195749999999992 Q 4.10176171875 1.5195749999999992 4.14713671875 1.5521999999999994 Q 4.19251171875 1.5848249999999993 4.19251171875 1.6418249999999994 Q 4.19251171875 1.6838249999999992 4.16401171875 1.7171999999999994 Q 4.13551171875 1.7505749999999993 4.08826171875 1.7678249999999993 L 4.23076171875 1.9755749999999994 L 4.28026171875 2.0025749999999993 L 4.28026171875 2.0145749999999993 L 4.17226171875 2.0145749999999993 L 4.02676171875 1.7873249999999994 L 3.95701171875 1.7873249999999994 L 3.95701171875 1.9718249999999993 L 4.01326171875 2.0025749999999993 L 4.01326171875 2.0145749999999993 L 3.82951171875 2.0145749999999993 M 4.00576171875 1.5608249999999995 L 3.95701171875 1.5608249999999995 L 3.95701171875 1.7460749999999994 L 4.01026171875 1.7460749999999994 Q 4.05751171875 1.7460749999999994 4.08863671875 1.7194499999999993 Q 4.11976171875 1.6928249999999994 4.11976171875 1.6515749999999993 Q 4.11976171875 1.6095749999999993 4.08901171875 1.5851999999999993 Q 4.05826171875 1.5608249999999995 4.00576171875 1.5608249999999995 M 4.322269775390625 2.1683249999999994 L 4.322269775390625 2.1525749999999992 Q 4.353769775390625 2.1360749999999995 4.368019775390625 2.115074999999999 Q 4.382269775390625 2.0940749999999992 4.382269775390625 2.0708249999999992 Q 4.382269775390625 2.0498249999999993 4.372894775390625 2.0359499999999993 Q 4.363519775390625 2.022074999999999 4.344769775390625 2.0123249999999993 L 4.319269775390625 1.9988249999999994 L 4.317019775390625 1.9913249999999993 L 4.338769775390625 1.9538249999999993 Q 4.344019775390625 1.9455749999999994 4.347769775390625 1.9414499999999992 Q 4.351519775390625 1.9373249999999993 4.357519775390625 1.9373249999999993 Q 4.363519775390625 1.9373249999999993 4.376269775390625 1.9440749999999993 Q 4.399519775390625 1.9575749999999994 4.412644775390625 1.9815749999999994 Q 4.425769775390625 2.0055749999999994 4.425769775390625 2.033324999999999 Q 4.425769775390625 2.0730749999999993 4.401769775390625 2.1075749999999993 Q 4.377769775390625 2.1420749999999993 4.322269775390625 2.1683249999999994 M 4.700269775390625 2.0145749999999993 L 4.700269775390625 2.0025749999999993 L 4.760269775390625 1.9725749999999993 L 4.760269775390625 1.5615749999999993 L 4.700269775390625 1.5315749999999992 L 4.700269775390625 1.5195749999999992 L 4.920019775390625 1.5195749999999992 Q 5.002519775390625 1.5195749999999992 5.061019775390625 1.5488249999999995 Q 5.119519775390625 1.5780749999999992 5.149894775390625 1.6290749999999994 Q 5.1802697753906255 1.6800749999999993 5.1802697753906255 1.7445749999999993 Q 5.1802697753906255 1.8030749999999993 5.160394775390625 1.8525749999999994 Q 5.140519775390625 1.9020749999999993 5.104519775390625 1.9380749999999993 Q 5.068519775390625 1.9740749999999994 5.020144775390625 1.9943249999999992 Q 4.971769775390625 2.0145749999999993 4.914769775390625 2.0145749999999993 L 4.700269775390625 2.0145749999999993 M 4.902769775390625 1.5608249999999995 L 4.827769775390625 1.5608249999999995 L 4.827769775390625 1.9733249999999993 L 4.914019775390625 1.9733249999999993 Q 4.974019775390625 1.9733249999999993 5.017894775390625 1.9481999999999993 Q 5.061769775390625 1.9230749999999994 5.0853947753906255 1.8769499999999995 Q 5.109019775390625 1.8308249999999993 5.109019775390625 1.7678249999999993 Q 5.109019775390625 1.7055749999999994 5.085019775390625 1.6586999999999994 Q 5.061019775390625 1.6118249999999994 5.014894775390625 1.5863249999999993 Q 4.968769775390625 1.5608249999999995 4.902769775390625 1.5608249999999995 M 5.2815380859375 2.0145749999999993 L 5.2815380859375 2.0025749999999993 L 5.3415380859375 1.9725749999999993 L 5.3415380859375 1.5615749999999993 L 5.2815380859375 1.5315749999999992 L 5.2815380859375 1.5195749999999992 L 5.6482880859375 1.5195749999999992 L 5.6482880859375 1.6485749999999992 L 5.6362880859375 1.6485749999999992 L 5.5897880859375 1.5608249999999995 L 5.4090380859375 1.5608249999999995 L 5.4090380859375 1.7385749999999993 L 5.5365380859375 1.7385749999999993 L 5.5740380859375 1.6763249999999994 L 5.5860380859375 1.6763249999999994 L 5.5860380859375 1.8405749999999994 L 5.5740380859375 1.8405749999999994 L 5.5365380859375 1.7798249999999993 L 5.4090380859375 1.7798249999999993 L 5.4090380859375 1.9733249999999993 L 5.6107880859375 1.9733249999999993 L 5.6572880859375 1.8780749999999993 L 5.6692880859375 1.8780749999999993 L 5.6692880859375 2.0145749999999993 L 5.2815380859375 2.0145749999999993 M 5.4802880859375 1.4820749999999994 L 5.5455380859375 1.3680749999999993 L 5.6070380859375 1.3680749999999993 Q 5.6070380859375 1.3793249999999992 5.6029130859375 1.3913249999999993 Q 5.5987880859375 1.4033249999999993 5.5822880859375 1.4153249999999993 L 5.4885380859375 1.4820749999999994 L 5.4802880859375 1.4820749999999994 M 6.021771240234375 2.022074999999999 Q 5.945271240234375 2.022074999999999 5.889771240234375 1.9905749999999993 Q 5.834271240234375 1.9590749999999992 5.804271240234375 1.9046999999999994 Q 5.774271240234375 1.8503249999999993 5.774271240234375 1.7805749999999994 Q 5.774271240234375 1.7273249999999993 5.794896240234375 1.6789499999999993 Q 5.815521240234375 1.6305749999999994 5.851146240234375 1.5930749999999994 Q 5.886771240234375 1.5555749999999993 5.933646240234375 1.5338249999999993 Q 5.980521240234375 1.5120749999999994 6.033021240234375 1.5120749999999994 Q 6.070521240234375 1.5120749999999994 6.096771240234375 1.5169499999999994 Q 6.123021240234375 1.5218249999999993 6.143646240234375 1.5296999999999994 Q 6.164271240234375 1.5375749999999992 6.185271240234375 1.5480749999999994 L 6.189021240234375 1.6793249999999993 L 6.175521240234375 1.6793249999999993 L 6.129771240234375 1.5878249999999994 Q 6.101271240234375 1.5675749999999993 6.079896240234375 1.5585749999999994 Q 6.058521240234375 1.5495749999999993 6.031521240234375 1.5495749999999993 Q 5.977521240234375 1.5495749999999993 5.935146240234375 1.5765749999999994 Q 5.892771240234375 1.6035749999999993 5.868396240234375 1.6504499999999993 Q 5.844021240234375 1.6973249999999993 5.844021240234375 1.7580749999999994 Q 5.844021240234375 1.8293249999999994 5.867646240234375 1.8799499999999993 Q 5.891271240234375 1.9305749999999993 5.931396240234375 1.9571999999999994 Q 5.971521240234375 1.9838249999999993 6.020271240234375 1.9838249999999993 Q 6.061521240234375 1.9838249999999993 6.089646240234375 1.9721999999999993 Q 6.117771240234375 1.9605749999999993 6.139521240234375 1.9463249999999994 L 6.184521240234375 1.8660749999999993 L 6.197271240234375 1.8660749999999993 L 6.189021240234375 1.9853249999999993 Q 6.167271240234375 1.9965749999999993 6.144396240234375 2.0048249999999994 Q 6.121521240234375 2.0130749999999993 6.092271240234375 2.0175749999999995 Q 6.063021240234375 2.022074999999999 6.021771240234375 2.022074999999999 M 6.318781127929688 2.0145749999999993 L 6.318781127929688 2.0025749999999993 L 6.378781127929687 1.9725749999999993 L 6.378781127929687 1.5615749999999993 L 6.318781127929688 1.5315749999999992 L 6.318781127929688 1.5195749999999992 L 6.506281127929688 1.5195749999999992 L 6.506281127929688 1.5315749999999992 L 6.446281127929687 1.5615749999999993 L 6.446281127929687 1.9725749999999993 L 6.506281127929688 2.0025749999999993 L 6.506281127929688 2.0145749999999993 L 6.318781127929688 2.0145749999999993 M 6.607542114257813 2.0145749999999993 L 6.607542114257813 2.0025749999999993 L 6.667542114257812 1.9725749999999993 L 6.667542114257812 1.5615749999999993 L 6.607542114257813 1.5315749999999992 L 6.607542114257813 1.5195749999999992 L 6.827292114257813 1.5195749999999992 Q 6.9097921142578125 1.5195749999999992 6.968292114257813 1.5488249999999995 Q 7.0267921142578125 1.5780749999999992 7.057167114257813 1.6290749999999994 Q 7.087542114257813 1.6800749999999993 7.087542114257813 1.7445749999999993 Q 7.087542114257813 1.8030749999999993 7.067667114257812 1.8525749999999994 Q 7.047792114257812 1.9020749999999993 7.011792114257813 1.9380749999999993 Q 6.975792114257812 1.9740749999999994 6.927417114257812 1.9943249999999992 Q 6.879042114257812 2.0145749999999993 6.822042114257813 2.0145749999999993 L 6.607542114257813 2.0145749999999993 M 6.810042114257812 1.5608249999999995 L 6.735042114257812 1.5608249999999995 L 6.735042114257812 1.9733249999999993 L 6.821292114257813 1.9733249999999993 Q 6.881292114257812 1.9733249999999993 6.925167114257812 1.9481999999999993 Q 6.969042114257812 1.9230749999999994 6.992667114257813 1.8769499999999995 Q 7.016292114257812 1.8308249999999993 7.016292114257812 1.7678249999999993 Q 7.016292114257812 1.7055749999999994 6.992292114257813 1.6586999999999994 Q 6.968292114257813 1.6118249999999994 6.922167114257812 1.5863249999999993 Q 6.876042114257812 1.5608249999999995 6.810042114257812 1.5608249999999995 M 7.188810424804688 2.0145749999999993 L 7.188810424804688 2.0025749999999993 L 7.248810424804687 1.9725749999999993 L 7.248810424804687 1.5615749999999993 L 7.188810424804688 1.5315749999999992 L 7.188810424804688 1.5195749999999992 L 7.555560424804687 1.5195749999999992 L 7.555560424804687 1.6485749999999992 L 7.543560424804688 1.6485749999999992 L 7.497060424804688 1.5608249999999995 L 7.316310424804687 1.5608249999999995 L 7.316310424804687 1.7385749999999993 L 7.4438104248046875 1.7385749999999993 L 7.481310424804687 1.6763249999999994 L 7.493310424804688 1.6763249999999994 L 7.493310424804688 1.8405749999999994 L 7.481310424804687 1.8405749999999994 L 7.4438104248046875 1.7798249999999993 L 7.316310424804687 1.7798249999999993 L 7.316310424804687 1.9733249999999993 L 7.518060424804688 1.9733249999999993 L 7.564560424804688 1.8780749999999993 L 7.576560424804687 1.8780749999999993 L 7.576560424804687 2.0145749999999993 L 7.188810424804688 2.0145749999999993 M 7.677793579101563 2.0145749999999993 L 7.677793579101563 2.0025749999999993 L 7.737793579101562 1.9725749999999993 L 7.737793579101562 1.5615749999999993 L 7.677793579101563 1.5315749999999992 L 7.677793579101563 1.5195749999999992 L 7.871293579101563 1.5195749999999992 Q 7.950043579101562 1.5195749999999992 7.995418579101562 1.5521999999999994 Q 8.040793579101562 1.5848249999999993 8.040793579101562 1.6418249999999994 Q 8.040793579101562 1.6838249999999992 8.012293579101563 1.7171999999999994 Q 7.983793579101563 1.7505749999999993 7.936543579101563 1.7678249999999993 L 8.079043579101562 1.9755749999999994 L 8.128543579101562 2.0025749999999993 L 8.128543579101562 2.0145749999999993 L 8.020543579101563 2.0145749999999993 L 7.875043579101563 1.7873249999999994 L 7.805293579101562 1.7873249999999994 L 7.805293579101562 1.9718249999999993 L 7.861543579101562 2.0025749999999993 L 7.861543579101562 2.0145749999999993 L 7.677793579101563 2.0145749999999993 M 7.854043579101562 1.5608249999999995 L 7.805293579101562 1.5608249999999995 L 7.805293579101562 1.7460749999999994 L 7.858543579101562 1.7460749999999994 Q 7.905793579101562 1.7460749999999994 7.936918579101563 1.7194499999999993 Q 7.968043579101563 1.6928249999999994 7.968043579101563 1.6515749999999993 Q 7.968043579101563 1.6095749999999993 7.937293579101563 1.5851999999999993 Q 7.906543579101562 1.5608249999999995 7.854043579101562 1.5608249999999995 M 8.170551635742187 2.1683249999999994 L 8.170551635742187 2.1525749999999992 Q 8.202051635742187 2.1360749999999995 8.216301635742187 2.115074999999999 Q 8.230551635742188 2.0940749999999992 8.230551635742188 2.0708249999999992 Q 8.230551635742188 2.0498249999999993 8.221176635742188 2.0359499999999993 Q 8.211801635742187 2.022074999999999 8.193051635742188 2.0123249999999993 L 8.167551635742187 1.9988249999999994 L 8.165301635742187 1.9913249999999993 L 8.187051635742188 1.9538249999999993 Q 8.192301635742188 1.9455749999999994 8.196051635742187 1.9414499999999992 Q 8.199801635742187 1.9373249999999993 8.205801635742187 1.9373249999999993 Q 8.211801635742187 1.9373249999999993 8.224551635742188 1.9440749999999993 Q 8.247801635742187 1.9575749999999994 8.260926635742187 1.9815749999999994 Q 8.274051635742188 2.0055749999999994 8.274051635742188 2.033324999999999 Q 8.274051635742188 2.0730749999999993 8.250051635742187 2.1075749999999993 Q 8.226051635742188 2.1420749999999993 8.170551635742187 2.1683249999999994 M 8.552301635742188 2.0145749999999993 L 8.552301635742188 2.0025749999999993 L 8.612301635742188 1.9725749999999993 L 8.612301635742188 1.5615749999999993 L 8.552301635742188 1.5315749999999992 L 8.552301635742188 1.5195749999999992 L 8.739801635742188 1.5195749999999992 L 8.739801635742188 1.5315749999999992 L 8.679801635742187 1.5615749999999993 L 8.679801635742187 1.9725749999999993 L 8.739801635742188 2.0025749999999993 L 8.739801635742188 2.0145749999999993 L 8.552301635742188 2.0145749999999993 M 8.837312622070312 2.0145749999999993 L 8.837312622070312 2.0025749999999993 L 8.897312622070313 1.9725749999999993 L 8.897312622070313 1.5630749999999993 L 8.838062622070312 1.5315749999999992 L 8.838062622070312 1.5195749999999992 L 8.948312622070313 1.5195749999999992 L 9.234812622070313 1.8795749999999993 L 9.234812622070313 1.5600749999999994 L 9.159812622070312 1.5315749999999992 L 9.159812622070312 1.5195749999999992 L 9.346562622070312 1.5195749999999992 L 9.346562622070312 1.5315749999999992 L 9.287312622070312 1.5608249999999995 L 9.287312622070312 2.0183249999999995 L 9.259562622070312 2.0183249999999995 L 8.949812622070313 1.6275749999999993 L 8.949812622070313 1.9733249999999993 L 9.024812622070312 2.0025749999999993 L 9.024812622070312 2.0145749999999993 L 8.837312622070312 2.0145749999999993 M 9.429063720703125 2.0145749999999993 L 9.429063720703125 2.0025749999999993 L 9.489063720703125 1.9725749999999993 L 9.489063720703125 1.5630749999999993 L 9.429813720703125 1.5315749999999992 L 9.429813720703125 1.5195749999999992 L 9.540063720703126 1.5195749999999992 L 9.826563720703126 1.8795749999999993 L 9.826563720703126 1.5600749999999994 L 9.751563720703125 1.5315749999999992 L 9.751563720703125 1.5195749999999992 L 9.938313720703125 1.5195749999999992 L 9.938313720703125 1.5315749999999992 L 9.879063720703124 1.5608249999999995 L 9.879063720703124 2.0183249999999995 L 9.851313720703125 2.0183249999999995 L 9.541563720703126 1.6275749999999993 L 9.541563720703126 1.9733249999999993 L 9.616563720703125 2.0025749999999993 L 9.616563720703125 2.0145749999999993 L 9.429063720703125 2.0145749999999993 M 10.285572143554688 2.022074999999999 Q 10.231572143554688 2.022074999999999 10.186197143554688 2.0029499999999993 Q 10.140822143554688 1.9838249999999993 10.107072143554687 1.9496999999999993 Q 10.073322143554687 1.9155749999999994 10.054572143554687 1.8690749999999994 Q 10.035822143554688 1.8225749999999994 10.035822143554688 1.7670749999999993 Q 10.035822143554688 1.7115749999999994 10.054572143554687 1.6650749999999994 Q 10.073322143554687 1.6185749999999994 10.107072143554687 1.5844499999999992 Q 10.140822143554688 1.5503249999999993 10.186197143554688 1.5311999999999992 Q 10.231572143554688 1.5120749999999994 10.285572143554688 1.5120749999999994 Q 10.339572143554687 1.5120749999999994 10.385322143554687 1.5311999999999992 Q 10.431072143554687 1.5503249999999993 10.464822143554688 1.5844499999999992 Q 10.498572143554687 1.6185749999999994 10.517322143554688 1.6650749999999994 Q 10.536072143554687 1.7115749999999994 10.536072143554687 1.7670749999999993 Q 10.536072143554687 1.8225749999999994 10.517322143554688 1.8690749999999994 Q 10.498572143554687 1.9155749999999994 10.464822143554688 1.9496999999999993 Q 10.431072143554687 1.9838249999999993 10.385322143554687 2.0029499999999993 Q 10.339572143554687 2.022074999999999 10.285572143554688 2.022074999999999 M 10.301322143554687 1.9845749999999993 Q 10.349322143554687 1.9845749999999993 10.385697143554687 1.9605749999999993 Q 10.422072143554688 1.9365749999999993 10.442697143554687 1.8930749999999994 Q 10.463322143554688 1.8495749999999993 10.463322143554688 1.7903249999999993 Q 10.463322143554688 1.7175749999999994 10.437822143554687 1.6631999999999993 Q 10.412322143554688 1.6088249999999993 10.369197143554688 1.5788249999999993 Q 10.326072143554688 1.5488249999999995 10.272822143554688 1.5488249999999995 Q 10.224822143554688 1.5488249999999995 10.187697143554688 1.5724499999999995 Q 10.150572143554687 1.5960749999999995 10.129572143554688 1.6395749999999993 Q 10.108572143554687 1.6830749999999992 10.108572143554687 1.7423249999999992 Q 10.108572143554687 1.8150749999999993 10.134447143554688 1.8698249999999994 Q 10.160322143554687 1.9245749999999993 10.203822143554687 1.9545749999999993 Q 10.247322143554687 1.9845749999999993 10.301322143554687 1.9845749999999993 M 10.833055297851562 2.0183249999999995 L 10.644055297851562 1.5578249999999993 L 10.592305297851562 1.5315749999999992 L 10.592305297851562 1.5195749999999992 L 10.779805297851562 1.5195749999999992 L 10.779805297851562 1.5315749999999992 L 10.715305297851563 1.5593249999999994 L 10.715305297851563 1.5630749999999993 L 10.855555297851563 1.9065749999999992 L 10.859305297851563 1.9065749999999992 L 10.998805297851563 1.5600749999999994 L 10.998805297851563 1.5570749999999993 L 10.937305297851562 1.5315749999999992 L 10.937305297851562 1.5195749999999992 L 11.094805297851563 1.5195749999999992 L 11.094805297851563 1.5315749999999992 L 11.052055297851563 1.5540749999999992 L 10.859305297851563 2.0183249999999995 L 10.833055297851562 2.0183249999999995 M 11.169797973632813 2.0145749999999993 L 11.169797973632813 2.0025749999999993 L 11.229797973632813 1.9725749999999993 L 11.229797973632813 1.5615749999999993 L 11.169797973632813 1.5315749999999992 L 11.169797973632813 1.5195749999999992 L 11.536547973632812 1.5195749999999992 L 11.536547973632812 1.6485749999999992 L 11.524547973632812 1.6485749999999992 L 11.478047973632812 1.5608249999999995 L 11.297297973632812 1.5608249999999995 L 11.297297973632812 1.7385749999999993 L 11.424797973632813 1.7385749999999993 L 11.462297973632813 1.6763249999999994 L 11.474297973632812 1.6763249999999994 L 11.474297973632812 1.8405749999999994 L 11.462297973632813 1.8405749999999994 L 11.424797973632813 1.7798249999999993 L 11.297297973632812 1.7798249999999993 L 11.297297973632812 1.9733249999999993 L 11.499047973632813 1.9733249999999993 L 11.545547973632813 1.8780749999999993 L 11.557547973632813 1.8780749999999993 L 11.557547973632813 2.0145749999999993 L 11.169797973632813 2.0145749999999993 M 11.658781127929688 2.0145749999999993 L 11.658781127929688 2.0025749999999993 L 11.718781127929688 1.9725749999999993 L 11.718781127929688 1.5615749999999993 L 11.658781127929688 1.5315749999999992 L 11.658781127929688 1.5195749999999992 L 11.852281127929688 1.5195749999999992 Q 11.931031127929687 1.5195749999999992 11.976406127929687 1.5521999999999994 Q 12.021781127929687 1.5848249999999993 12.021781127929687 1.6418249999999994 Q 12.021781127929687 1.6838249999999992 11.993281127929688 1.7171999999999994 Q 11.964781127929687 1.7505749999999993 11.917531127929687 1.7678249999999993 L 12.060031127929687 1.9755749999999994 L 12.109531127929687 2.0025749999999993 L 12.109531127929687 2.0145749999999993 L 12.001531127929688 2.0145749999999993 L 11.856031127929688 1.7873249999999994 L 11.786281127929687 1.7873249999999994 L 11.786281127929687 1.9718249999999993 L 11.842531127929687 2.0025749999999993 L 11.842531127929687 2.0145749999999993 L 11.658781127929688 2.0145749999999993 M 11.835031127929687 1.5608249999999995 L 11.786281127929687 1.5608249999999995 L 11.786281127929687 1.7460749999999994 L 11.839531127929687 1.7460749999999994 Q 11.886781127929687 1.7460749999999994 11.917906127929687 1.7194499999999993 Q 11.949031127929688 1.6928249999999994 11.949031127929688 1.6515749999999993 Q 11.949031127929688 1.6095749999999993 11.918281127929687 1.5851999999999993 Q 11.887531127929687 1.5608249999999995 11.835031127929687 1.5608249999999995" fill="#225777" fill-rule="nonzero"></path></g><g clip-path="url(#SvgjsClipPath1008)"><g clip-path="url(#SvgjsClipPath1002af03eaaa-fae1-41ca-952f-aefff0d14353)"><path d=" M -4.4254180677833865 1.0213674536313004 L -3.4425868543160982 0.0387420622991177 L -2.459961462983915 1.021573275766406 L -3.442792676451203 2.0041986670985885 Z" fill="#3a868f" transform="matrix(1,0,0,1,0,0)" fill-rule="nonzero"></path></g><g clip-path="url(#SvgjsClipPath1002af03eaaa-fae1-41ca-952f-aefff0d14353)"><path d=" M -3.9512207773497274 -0.4461729906714387 L -5.418792534920888 1.0213987668997218 L -3.97875495666626 2.460747990671437 L -4.6381985512972035 3.120191585302382 L -4.651277286472556 3.1078012046099426 L -6.078236129551832 1.6808423615306654 L -6.118160689560804 1.6402294470387815 C -6.447194132393363 1.3121138101834402 -6.555036334716446 1.034018599086466 -6.441687296530056 0.8059438137478585 C -6.382188174955934 0.690469936268602 -6.303779620540181 0.5857700861585451 -6.209711835788275 0.49618429643687434 L -4.610664371980671 -1.1056165853023825 Z" fill="#173054" transform="matrix(1,0,0,1,0,0)" fill-rule="evenodd"></path></g><g clip-path="url(#SvgjsClipPath1002af03eaaa-fae1-41ca-952f-aefff0d14353)"><path d=" M -2.9338328516038663 -0.4461729906714387 L -1.4662610940327054 1.0213987668997218 L -2.905610317804421 2.460747990671437 L -2.246166723173477 3.120191585302382 L -2.2330879879981245 3.1078012046099426 L -0.8068174994017623 1.6808423615306654 L -0.7668929393927906 1.6402294470387815 C -0.4378594965602316 1.3121138101834402 -0.33001729423714643 1.034018599086466 -0.44336633242353685 0.8059438137478585 C -0.5020331435740006 0.6906724588402644 -0.5795018283877313 0.5859850469298171 -0.6725883752336657 0.49618429643687234 L -2.2743892569729223 -1.1056165853023825 Z" fill="#225777" transform="matrix(1,0,0,1,0,0)" fill-rule="evenodd"></path></g></g></g><defs><clipPath id="SvgjsClipPath1008"><path d=" M -6.485053628953594 -1.1056165853023827 h 6.0850536289535935 v 4.225808170604765 h -6.0850536289535935 Z"></path></clipPath><clipPath id="SvgjsClipPath1002af03eaaa-fae1-41ca-952f-aefff0d14353"><path d=" M -6.485053628953594 -1.1056165853023825 L -0.40000000000000036 -1.1056165853023825 L -0.40000000000000036 3.120191585302382 L -6.485053628953594 3.120191585302382 Z"></path></clipPath></defs></svg>